<svg xmlns="http://www.w3.org/2000/svg" version="1.1" xmlns:xlink="http://www.w3.org/1999/xlink" xmlns:svgjs="http://svgjs.dev/svgjs" width="1440" height="560" preserveAspectRatio="none" viewBox="0 0 1440 560">
    <g mask="url(&quot;#SvgjsMask1008&quot;)" fill="none">
        <path d="M936.8413390355572 512.1983668336527L800.8808649292578 436.83424539672114 725.5167434923262 572.7947195030206 861.4772175986257 648.1588409399521z" fill="rgba(52, 211, 153, 0.2)" class="triangle-float2"></path>
        <path d="M182.58201656482038 55.32989720971441L66.61223911416961 152.64009469626671 163.92243660072194 268.6098721469175 279.89221405137266 171.29967466036518z" fill="rgba(52, 211, 153, 0.2)" class="triangle-float3"></path>
        <path d="M452.13,188.128C499.309,187.376,552.038,179.666,574.359,138.095C595.982,97.825,568.05,53.368,545.979,13.342C522.706,-28.865,500.178,-79.78,452.13,-83.574C399.745,-87.71,354.647,-49.433,328.543,-3.827C302.625,41.454,294.715,98.235,322.959,142.103C349.479,183.294,403.146,188.909,452.13,188.128" fill="rgba(52, 211, 153, 0.2)" class="triangle-float3"></path>
        <path d="M191.446,475.422C215.351,476.134,239.729,467.693,252.185,447.277C265.107,426.096,263.984,398.969,250.983,377.836C238.562,357.645,215.126,349.643,191.446,348.543C165.133,347.32,134.614,348.982,121.487,371.819C108.383,394.615,121.955,422.043,136.67,443.834C149.312,462.555,168.866,474.749,191.446,475.422" fill="rgba(52, 211, 153, 0.2)" class="triangle-float1"></path>
        <path d="M1238.3206336514625 68.43481848691816L1086.8126052781045 79.02929189491402 1097.4070786861002 230.53732026827203 1248.9151070594583 219.94284686027618z" fill="rgba(52, 211, 153, 0.2)" class="triangle-float1"></path>
        <path d="M1354.3446832913046 111.44029053122108L1259.7362707298034 52.322393088745535 1200.6183732873278 146.93080565024678 1295.226785848829 206.04870309272235z" fill="rgba(52, 211, 153, 0.2)" class="triangle-float3"></path>
        <path d="M379.5497534862767 192.57954304831225L402.19564971137885 321.01080259868274 530.6269092617493 298.36490637358054 507.98101303664714 169.9336468232101z" fill="rgba(52, 211, 153, 0.2)" class="triangle-float2"></path>
    </g>
    <defs>
        <mask id="SvgjsMask1008">
            <rect width="1440" height="560" fill="#ffffff"></rect>
        </mask>
        <style>
            @keyframes float1 {
                    0%{transform: translate(0, 0)}
                    50%{transform: translate(-10px, 0)}
                    100%{transform: translate(0, 0)}
                }

                .triangle-float1 {
                    animation: float1 5s infinite;
                }

                @keyframes float2 {
                    0%{transform: translate(0, 0)}
                    50%{transform: translate(-5px, -5px)}
                    100%{transform: translate(0, 0)}
                }

                .triangle-float2 {
                    animation: float2 4s infinite;
                }

                @keyframes float3 {
                    0%{transform: translate(0, 0)}
                    50%{transform: translate(0, -10px)}
                    100%{transform: translate(0, 0)}
                }

                .triangle-float3 {
                    animation: float3 6s infinite;
                }
        </style>
    </defs>
</svg>