<svg xmlns="http://www.w3.org/2000/svg" version="1.1" xmlns:xlink="http://www.w3.org/1999/xlink" xmlns:svgjs="http://svgjs.dev/svgjs" width="1440" height="560" preserveAspectRatio="none" viewBox="0 0 1440 560">
    <g mask="url(&quot;#SvgjsMask1008&quot;)" fill="none">
        <path d="M1145.372,131.138C1171.015,131.95,1197.212,122.519,1210.297,100.45C1223.607,78.001,1220.01,50.008,1206.831,27.482C1193.795,5.2,1171.162,-11.644,1145.372,-10.519C1121.064,-9.459,1104.164,11.088,1092.548,32.467C1081.58,52.655,1076.355,76.297,1087.199,96.552C1098.611,117.868,1121.205,130.373,1145.372,131.138" fill="rgba(216, 180, 254, 0.2)" class="triangle-float1"></path>
        <path d="M447.4476597302325 216.14513680752003L409.6628742536693 339.73360132239816 571.0361242451106 253.92992228408318z" fill="rgba(216, 180, 254, 0.2)" class="triangle-float2"></path>
        <path d="M272.173,542.307C309.103,543.167,342.349,522.297,361.927,490.972C382.872,457.46,390.793,416.224,373.04,380.917C353.476,342.007,315.724,312.591,272.173,312.464C228.436,312.337,189.032,340.811,170.283,380.326C153.693,415.29,168.776,454.194,189.382,486.952C208.327,517.07,236.602,541.478,272.173,542.307" fill="rgba(216, 180, 254, 0.2)" class="triangle-float2"></path>
        <path d="M1083.547,544.077C1101.332,542.971,1117.971,536.337,1128.115,521.687C1140.075,504.414,1149.04,482.393,1139.058,463.906C1128.74,444.798,1105.208,437.594,1083.547,439.145C1064.407,440.515,1050.435,454.694,1040.284,470.978C1029.288,488.618,1017.637,510.008,1028.224,527.896C1038.712,545.618,1062.994,545.355,1083.547,544.077" fill="rgba(216, 180, 254, 0.2)" class="triangle-float2"></path>
        <path d="M30.673,357.076C53.364,358.888,75.543,346.789,86.863,327.041C98.128,307.39,95.611,283.263,84.202,263.695C72.884,244.283,53.141,231.013,30.673,230.667C7.606,230.312,-15.795,241.208,-25.79,262.001C-34.896,280.944,-22.596,301.088,-11.864,319.159C-1.469,336.663,10.38,355.456,30.673,357.076" fill="rgba(216, 180, 254, 0.2)" class="triangle-float2"></path>
    </g>
    <defs>
        <mask id="SvgjsMask1008">
            <rect width="1440" height="560" fill="#ffffff"></rect>
        </mask>
        <style>
            @keyframes float1 {
                    0%{transform: translate(0, 0)}
                    50%{transform: translate(-10px, 0)}
                    100%{transform: translate(0, 0)}
                }

                .triangle-float1 {
                    animation: float1 5s infinite;
                }

                @keyframes float2 {
                    0%{transform: translate(0, 0)}
                    50%{transform: translate(-5px, -5px)}
                    100%{transform: translate(0, 0)}
                }

                .triangle-float2 {
                    animation: float2 4s infinite;
                }

                @keyframes float3 {
                    0%{transform: translate(0, 0)}
                    50%{transform: translate(0, -10px)}
                    100%{transform: translate(0, 0)}
                }

                .triangle-float3 {
                    animation: float3 6s infinite;
                }
        </style>
    </defs>
</svg>